# xmcd
#
# Track frame offsets:
#   150
#   12772
#   26571
#   45996
#   60890
#   77292
#   91245
#   104700
#   119749
#   134228
#   152110
#   167111
#   181857
#   194837
#   206348
#   218740
#   231372
#   244035
#   259111
#   269922
#   283038
#   296403
#   306636
#   317722
#
# Disc length: 4391 seconds
#
# Revision: 0
# Processed by: cddbd v1.4PL0 Copyright (c) Steve Scherf et al.
# Submitted via: uFREEDB ActiveX Control 1.5
#
DISCID=67112518
DTITLE=Tião Carreiro and Pardinho - Baladas
DYEAR=2003
DGENRE=Country
TTITLE0=Arrependida
TTITLE1=Amargurado
TTITLE2=Apaixonados
TTITLE3=Amor E Saudade
TTITLE4=A Mão Do Tempo
TTITLE5=Oi Paixão
TTITLE6=Velho Amor
TTITLE7=Rolinha Cabocla
TTITLE8=Parede E Meia
TTITLE9=Piscina
TTITLE10=Estrela De Ouro
TTITLE11=Felicidade
TTITLE12=Estrela Da Madrugada
TTITLE13=Nossos Devaneios
TTITLE14=Flor Do Baile
TTITLE15=Vim Dizer Adeus
TTITLE16=Raízes Do Amor
TTITLE17=Canção Da Madrugada
TTITLE18=Última Chance
TTITLE19=Sou Louco Por Ele
TTITLE20=Borboleta Do Asfalto
TTITLE21=Saudade
TTITLE22=Rasqueadinho Do Adeus
TTITLE23=Florzinha Do Campo
EXTD=
EXTT0=
EXTT1=
EXTT2=
EXTT3=
EXTT4=
EXTT5=
EXTT6=
EXTT7=
EXTT8=
EXTT9=
EXTT10=
EXTT11=
EXTT12=
EXTT13=
EXTT14=
EXTT15=
EXTT16=
EXTT17=
EXTT18=
EXTT19=
EXTT20=
EXTT21=
EXTT22=
EXTT23=
PLAYORDER=
